<?xml version="1.0" encoding="iso-8859-1"?>
<!-- Uploaded to: SVG Repo, www.svgrepo.com, Generator: SVG Repo Mixer Tools -->
<svg fill="#000000" height="800px" width="800px" version="1.1" id="Capa_1" xmlns="http://www.w3.org/2000/svg" xmlns:xlink="http://www.w3.org/1999/xlink" 
	 viewBox="0 0 371.573 371.573" xml:space="preserve">
<g>
	<path d="M186.286,150c41.355,0,75-33.645,75-75s-33.645-75-75-75s-75,33.645-75,75S144.931,150,186.286,150z M186.286,15
		c33.084,0,60,26.916,60,60s-26.916,60-60,60s-60-26.916-60-60S153.202,15,186.286,15z"/>
	<path d="M230.641,194.573h-88.71c-48.604,0-88.645,39.824-88.645,88.427v88.573h265V283
		C318.286,234.396,279.245,194.573,230.641,194.573z M209.182,209.573l-24.207,44.013l-25.307-44.013H209.182z M68.286,283
		c0-40.333,33.312-73.427,73.645-73.427h0.432l34.151,59.748l-47.793,87.252H68.286V283z M185.265,284.893l41.216,71.68h-80.64
		L185.265,284.893z M303.286,356.573h-59.502l-50.06-87.415l32.576-59.585h4.341c40.332,0,72.645,33.095,72.645,73.427V356.573z"/>
</g>
</svg>